# xmcd
#
# Track frame offsets:
#	150
#	10857
#	28098
#	38444
#	53408
#	68141
#	81380
#	94493
#	107527
#	126238
#	143502
#	155799
#	165247
#	183621
#	196217
#	210611
#	226406
#	242079
#
# Disc length: 3417 seconds
#
# Revision: 1
# Processed by: cddbd v1.5.1PL0 Copyright (c) Steve Scherf et al.
# Submitted via: audiograbber 1.83.01
#
DISCID=ea0d5712
DTITLE=Flying Burrito Brothers, The - The Collection
DYEAR=2005
DGENRE=Country
TTITLE0=Break My Mind
TTITLE1=Sing Me Back Home
TTITLE2=Close Up The Honky Tonks
TTITLE3=Image Of Me
TTITLE4=White Line Fever
TTITLE5=Six Days On The Road
TTITLE6=Dim Lights
TTITLE7=Tonight The Bottle Let Me Down
TTITLE8=Sin City
TTITLE9=Dark End Of The Street
TTITLE10=Pick Me Up On Your Way Down
TTITLE11=God's Own Singer
TTITLE12=Green Green Grass Of Home
TTITLE13=Crazy Arms
TTITLE14=Together Again
TTITLE15=Wake Up Little Suzzie
TTITLE16=Here Tonight
TTITLE17=Your Angel Steps Out Of Heaven
EXTD=
EXTT0=
EXTT1=
EXTT2=
EXTT3=
EXTT4=
EXTT5=
EXTT6=
EXTT7=
EXTT8=
EXTT9=
EXTT10=
EXTT11=
EXTT12=
EXTT13=
EXTT14=
EXTT15=
EXTT16=
EXTT17=
PLAYORDER=
